<svg width="253" height="221" xmlns="http://www.w3.org/2000/svg" xmlns:xlink="http://www.w3.org/1999/xlink" xml:space="preserve" overflow="hidden"><defs><clipPath id="clip0"><rect x="1288" y="1075" width="253" height="221"/></clipPath></defs><g clip-path="url(#clip0)" transform="translate(-1288 -1075)"><path d="M1347.74 1075 1398.6 1075 1398.6 1112.04 1398.6 1112.04 1394.95 1129.98 1394.93 1129.98 1394.93 1144.06 1434.07 1144.06 1434.07 1129.98 1434.05 1129.98 1430.4 1112.04 1430.4 1112.04 1430.4 1075 1481.26 1075 1481.26 1112.04 1481.26 1112.04 1477.71 1129.51 1519.67 1129.51 1527.78 1207.66 1527.78 1223.41 1527.78 1223.41 1528.43 1224.95C1534.45 1240.32 1538.74 1260.28 1540.49 1282.67L1541 1296 1455.97 1296 1456.48 1282.67C1458.23 1260.28 1462.52 1240.32 1468.54 1224.95L1469.19 1223.41 1434.07 1223.41 1434.07 1210.12 1394.93 1210.12 1394.93 1223.41 1359.81 1223.41 1360.46 1224.95C1366.48 1240.32 1370.77 1260.28 1372.52 1282.67L1373.03 1296 1288 1296 1288.51 1282.67C1290.26 1260.28 1294.55 1240.32 1300.57 1224.95L1301.22 1223.41 1301.22 1223.41 1301.22 1207.66 1309.33 1129.51 1351.29 1129.51 1347.74 1112.04 1347.74 1112.04Z" fill="#2F5597" fill-rule="evenodd"/></g></svg>